<svg version="1" xmlns="http://www.w3.org/2000/svg" width="1333.333" height="1333.333" viewBox="0 0 1000.000000 1000.000000"><path d="M888.5 1.4c-2.7.7-6.9 2.1-9.2 3.2-2.2 1-184.9 103.6-406 227.9C90.5 447.8 71.2 458.8 64.9 465c-19.9 19.6-19.9 50.4 0 70 6.3 6.2 25.6 17.2 410.6 233.6 222.2 125 406.3 227.9 409 228.9 27.4 9.2 58.4-8.7 64.4-37.3 1.6-7.5 1.6-912.9 0-920.4-1.9-9.2-6.7-17.7-13.8-24.9C922.6 2.4 905-2.7 888.5 1.4zM710.2 251.1C732.8 255.8 750 277 750 300c0 27-23 50-50 50s-50-23-50-50c0-22.5 16.4-43.3 38.3-48.6 6.6-1.6 15.2-1.7 21.9-.3zm0 150c9.2 1.9 17.7 6.7 24.9 13.8 7.1 7.2 11.9 15.7 13.8 24.9 1.6 7.5 1.6 262.9 0 270.4C744.2 732.8 723 750 700 750s-44.2-17.2-48.9-39.8c-1.6-7.5-1.6-262.9 0-270.4 3.8-18.2 19.1-34 37.2-38.4 6.6-1.6 15.2-1.7 21.9-.3z"/></svg>